HIERARCHY
ROOT mixamorig:Hips
{
	OFFSET 0.000000 104.274902 0.000000
	CHANNELS 6 Xposition Yposition Zposition Xrotation Yrotation Zrotation
	JOINT mixamorig:Spine
	{
		OFFSET 0.000000 10.181549 0.131524
		CHANNELS 6 Xposition Yposition Zposition Xrotation Yrotation Zrotation
		JOINT mixamorig:Spine1
		{
			OFFSET 0.000000 9.893990 -1.470706
			CHANNELS 3 Xrotation Yrotation Zrotation
			JOINT mixamorig:Spine2
			{
				OFFSET 0.000000 9.220787 -1.370637
				CHANNELS 3 Xrotation Yrotation Zrotation
				JOINT mixamorig:Neck
				{
					OFFSET 0.000000 16.740372 -2.049022
					CHANNELS 6 Xposition Yposition Zposition Xrotation Yrotation Zrotation
					JOINT mixamorig:Head
					{
						OFFSET 0.000000 9.617859 1.684976
						CHANNELS 6 Xposition Yposition Zposition Xrotation Yrotation Zrotation
						JOINT mixamorig:HeadTop_End
						{
							OFFSET 0.000000 22.037384 7.501072
							CHANNELS 6 Xposition Yposition Zposition Xrotation Yrotation Zrotation
							End Site
							{
								OFFSET 0.000000 23.106567 -2.828246
							}
						}
					}
				}
				JOINT mixamorig:RightShoulder
				{
					OFFSET -4.570000 11.014877 -2.160840
					CHANNELS 6 Xposition Yposition Zposition Xrotation Yrotation Zrotation
					JOINT mixamorig:RightArm
					{
						OFFSET -10.592867 -0.524796 -2.232105
						CHANNELS 3 Xrotation Yrotation Zrotation
						JOINT mixamorig:RightForeArm
						{
							OFFSET -27.841497 0.000000 -0.000002
							CHANNELS 3 Xrotation Yrotation Zrotation
							JOINT mixamorig:RightHand
							{
								OFFSET -28.328812 0.000000 -0.000001
								CHANNELS 3 Xrotation Yrotation Zrotation
								JOINT mixamorig:RightHandThumb1
								{
									OFFSET -2.464798 -1.573990 2.681911
									CHANNELS 6 Xposition Yposition Zposition Xrotation Yrotation Zrotation
									JOINT mixamorig:RightHandThumb2
									{
										OFFSET -3.244781 -1.873383 1.873376
										CHANNELS 3 Xrotation Yrotation Zrotation
										JOINT mixamorig:RightHandThumb3
										{
											OFFSET -2.646263 -1.527817 1.527818
											CHANNELS 6 Xposition Yposition Zposition Xrotation Yrotation Zrotation
											JOINT mixamorig:RightHandThumb4
											{
												OFFSET -1.994591 -1.151581 1.151575
												CHANNELS 6 Xposition Yposition Zposition Xrotation Yrotation Zrotation
												End Site
												{
													OFFSET -1.860176 -1.142715 1.365483
												}
											}
										}
									}
								}
								JOINT mixamorig:RightHandIndex1
								{
									OFFSET -9.108299 -0.517883 2.259803
									CHANNELS 6 Xposition Yposition Zposition Xrotation Yrotation Zrotation
									JOINT mixamorig:RightHandIndex2
									{
										OFFSET -3.699997 0.000000 0.000000
										CHANNELS 3 Xrotation Yrotation Zrotation
										JOINT mixamorig:RightHandIndex3
										{
											OFFSET -2.850006 0.000000 0.000000
											CHANNELS 3 Xrotation Yrotation Zrotation
											JOINT mixamorig:RightHandIndex4
											{
												OFFSET -2.772194 0.000000 0.000000
												CHANNELS 3 Xrotation Yrotation Zrotation
												End Site
												{
													OFFSET -2.772202 0.000000 -0.000484
												}
											}
										}
									}
								}
								JOINT mixamorig:RightHandMiddle1
								{
									OFFSET -9.532501 0.000000 -0.000000
									CHANNELS 6 Xposition Yposition Zposition Xrotation Yrotation Zrotation
									JOINT mixamorig:RightHandMiddle2
									{
										OFFSET -3.699997 0.000000 0.000000
										CHANNELS 3 Xrotation Yrotation Zrotation
										JOINT mixamorig:RightHandMiddle3
										{
											OFFSET -2.949997 0.000000 0.000000
											CHANNELS 3 Xrotation Yrotation Zrotation
											JOINT mixamorig:RightHandMiddle4
											{
												OFFSET -2.946594 0.000000 0.000000
												CHANNELS 3 Xrotation Yrotation Zrotation
												End Site
												{
													OFFSET -2.946602 0.000000 -0.000982
												}
											}
										}
									}
								}
								JOINT mixamorig:RightHandRing1
								{
									OFFSET -9.103600 -0.043106 -1.865100
									CHANNELS 6 Xposition Yposition Zposition Xrotation Yrotation Zrotation
									JOINT mixamorig:RightHandRing2
									{
										OFFSET -3.379303 0.000000 0.000000
										CHANNELS 3 Xrotation Yrotation Zrotation
										JOINT mixamorig:RightHandRing3
										{
											OFFSET -2.889694 0.000000 0.000000
											CHANNELS 3 Xrotation Yrotation Zrotation
											JOINT mixamorig:RightHandRing4
											{
												OFFSET -2.638802 0.000000 0.000000
												CHANNELS 3 Xrotation Yrotation Zrotation
												End Site
												{
													OFFSET -2.638802 0.000000 0.004218
												}
											}
										}
									}
								}
								JOINT mixamorig:RightHandPinky1
								{
									OFFSET -8.076698 -0.486725 -3.806299
									CHANNELS 6 Xposition Yposition Zposition Xrotation Yrotation Zrotation
									JOINT mixamorig:RightHandPinky2
									{
										OFFSET -3.600006 0.000000 0.000000
										CHANNELS 3 Xrotation Yrotation Zrotation
										JOINT mixamorig:RightHandPinky3
										{
											OFFSET -2.099998 0.000000 0.000000
											CHANNELS 3 Xrotation Yrotation Zrotation
											JOINT mixamorig:RightHandPinky4
											{
												OFFSET -2.115791 0.000000 0.000000
												CHANNELS 3 Xrotation Yrotation Zrotation
												End Site
												{
													OFFSET -2.115799 0.000000 0.000174
												}
											}
										}
									}
								}
							}
						}
					}
				}
				JOINT mixamorig:LeftShoulder
				{
					OFFSET 4.570400 11.014679 -2.160816
					CHANNELS 6 Xposition Yposition Zposition Xrotation Yrotation Zrotation
					JOINT mixamorig:LeftArm
					{
						OFFSET 10.592373 -0.524597 -2.232116
						CHANNELS 3 Xrotation Yrotation Zrotation
						JOINT mixamorig:LeftForeArm
						{
							OFFSET 27.841488 0.000000 0.000001
							CHANNELS 3 Xrotation Yrotation Zrotation
							JOINT mixamorig:LeftHand
							{
								OFFSET 28.328808 0.000000 -0.000000
								CHANNELS 3 Xrotation Yrotation Zrotation
								JOINT mixamorig:LeftHandThumb1
								{
									OFFSET 2.466103 -1.576202 2.681698
									CHANNELS 6 Xposition Yposition Zposition Xrotation Yrotation Zrotation
									JOINT mixamorig:LeftHandThumb2
									{
										OFFSET 3.243317 -1.872528 1.872530
										CHANNELS 3 Xrotation Yrotation Zrotation
										JOINT mixamorig:LeftHandThumb3
										{
											OFFSET 2.647881 -1.528763 1.528754
											CHANNELS 6 Xposition Yposition Zposition Xrotation Yrotation Zrotation
											JOINT mixamorig:LeftHandThumb4
											{
												OFFSET 1.998924 -1.154083 1.154080
												CHANNELS 6 Xposition Yposition Zposition Xrotation Yrotation Zrotation
												End Site
												{
													OFFSET 1.884041 -1.149155 1.337651
												}
											}
										}
									}
								}
								JOINT mixamorig:LeftHandIndex1
								{
									OFFSET 9.109299 -0.518005 2.259900
									CHANNELS 6 Xposition Yposition Zposition Xrotation Yrotation Zrotation
									JOINT mixamorig:LeftHandIndex2
									{
										OFFSET 3.699997 0.000000 0.000000
										CHANNELS 3 Xrotation Yrotation Zrotation
										JOINT mixamorig:LeftHandIndex3
										{
											OFFSET 2.850006 0.000000 0.000000
											CHANNELS 3 Xrotation Yrotation Zrotation
											JOINT mixamorig:LeftHandIndex4
											{
												OFFSET 2.774895 0.000000 0.000000
												CHANNELS 3 Xrotation Yrotation Zrotation
												End Site
												{
													OFFSET 2.774902 0.000000 -0.000072
												}
											}
										}
									}
								}
								JOINT mixamorig:LeftHandMiddle1
								{
									OFFSET 9.533401 0.000000 0.000000
									CHANNELS 6 Xposition Yposition Zposition Xrotation Yrotation Zrotation
									JOINT mixamorig:LeftHandMiddle2
									{
										OFFSET 3.699997 0.000000 0.000000
										CHANNELS 3 Xrotation Yrotation Zrotation
										JOINT mixamorig:LeftHandMiddle3
										{
											OFFSET 2.949997 0.000000 0.000000
											CHANNELS 3 Xrotation Yrotation Zrotation
											JOINT mixamorig:LeftHandMiddle4
											{
												OFFSET 2.952896 0.000000 0.000000
												CHANNELS 3 Xrotation Yrotation Zrotation
												End Site
												{
													OFFSET 2.952904 0.000000 0.000165
												}
											}
										}
									}
								}
								JOINT mixamorig:LeftHandRing1
								{
									OFFSET 9.104500 -0.042999 -1.865101
									CHANNELS 6 Xposition Yposition Zposition Xrotation Yrotation Zrotation
									JOINT mixamorig:LeftHandRing2
									{
										OFFSET 3.149994 0.000000 0.000000
										CHANNELS 3 Xrotation Yrotation Zrotation
										JOINT mixamorig:LeftHandRing3
										{
											OFFSET 2.950005 0.000000 0.000000
											CHANNELS 3 Xrotation Yrotation Zrotation
											JOINT mixamorig:LeftHandRing4
											{
												OFFSET 2.644302 0.000000 0.000000
												CHANNELS 3 Xrotation Yrotation Zrotation
												End Site
												{
													OFFSET 2.644302 0.000000 0.000083
												}
											}
										}
									}
								}
								JOINT mixamorig:LeftHandPinky1
								{
									OFFSET 8.077805 -0.486893 -3.806302
									CHANNELS 6 Xposition Yposition Zposition Xrotation Yrotation Zrotation
									JOINT mixamorig:LeftHandPinky2
									{
										OFFSET 3.600006 0.000000 0.000000
										CHANNELS 3 Xrotation Yrotation Zrotation
										JOINT mixamorig:LeftHandPinky3
										{
											OFFSET 2.099998 0.000000 0.000000
											CHANNELS 3 Xrotation Yrotation Zrotation
											JOINT mixamorig:LeftHandPinky4
											{
												OFFSET 2.125496 0.000000 0.000000
												CHANNELS 3 Xrotation Yrotation Zrotation
												End Site
												{
													OFFSET 2.125504 0.000000 -0.001254
												}
											}
										}
									}
								}
							}
						}
					}
				}
			}
		}
	}
	JOINT mixamorig:RightUpLeg
	{
		OFFSET -8.207800 -6.751701 -1.599544
		CHANNELS 6 Xposition Yposition Zposition Xrotation Yrotation Zrotation
		JOINT mixamorig:RightLeg
		{
			OFFSET 0.000004 -44.370152 0.345934
			CHANNELS 3 Xrotation Yrotation Zrotation
			JOINT mixamorig:RightFoot
			{
				OFFSET 0.000004 -44.423664 -3.043535
				CHANNELS 3 Xrotation Yrotation Zrotation
				JOINT mixamorig:RightToeBase
				{
					OFFSET 0.000001 -8.728691 10.710592
					CHANNELS 3 Xrotation Yrotation Zrotation
					JOINT mixamorig:RightToe_End
					{
						OFFSET 0.000000 -0.000665 9.278101
						CHANNELS 3 Xrotation Yrotation Zrotation
						End Site
						{
							OFFSET 0.000000 -0.000665 9.278103
						}
					}
				}
			}
		}
	}
	JOINT mixamorig:LeftUpLeg
	{
		OFFSET 8.207800 -6.751701 -1.599544
		CHANNELS 6 Xposition Yposition Zposition Xrotation Yrotation Zrotation
		JOINT mixamorig:LeftLeg
		{
			OFFSET 0.000004 -44.370037 0.346940
			CHANNELS 3 Xrotation Yrotation Zrotation
			JOINT mixamorig:LeftFoot
			{
				OFFSET 0.000004 -44.423611 -3.044388
				CHANNELS 3 Xrotation Yrotation Zrotation
				JOINT mixamorig:LeftToeBase
				{
					OFFSET 0.000001 -8.728690 10.710592
					CHANNELS 3 Xrotation Yrotation Zrotation
					JOINT mixamorig:LeftToe_End
					{
						OFFSET 0.000000 -0.000680 9.278101
						CHANNELS 3 Xrotation Yrotation Zrotation
						End Site
						{
							OFFSET 0.000000 -0.000680 9.278101
						}
					}
				}
			}
		}
	}
}
MOTION
Frames: 4
Frame Time: 0.033333
-0.182365 79.254684 0.804972 -11.997212 -1.876858 -3.324973 -0.000000 10.181555 0.131524 19.358211 0.115054 1.530279 6.933035 -0.093603 0.595818 6.932876 -0.094801 0.597716 0.000001 16.740360 -2.049022 0.219581 -0.077942 3.134710 -0.000003 9.617858 1.684978 -1.238394 5.856623 -9.158877 -0.000001 22.037384 7.501072 -0.000002 0.000000 -0.000000 -4.569998 11.014875 -2.160842 0.150907 9.612144 9.551724 -26.848449 23.110630 70.057025 -0.000026 46.216366 0.000017 39.729199 -0.253589 -39.076537 -2.464788 -1.574008 2.681911 4.365084 3.545677 3.587918 18.858987 -16.132377 5.536863 -2.646258 -1.527818 1.527815 -5.056965 -2.363349 -3.812189 -1.994590 -1.151583 1.151575 0.000000 -0.000003 -0.000000 -9.108296 -0.517886 2.259798 0.620418 -2.988676 31.879092 0.268641 -1.917762 15.947296 0.004866 -0.260169 2.135423 -0.000000 -0.000002 0.000004 -9.532503 -0.000001 0.000001 0.965950 -4.223751 16.700318 0.818861 -3.278690 28.038862 0.025684 0.598393 -4.916368 0.000002 -0.000002 -0.000002 -9.103600 -0.043091 -1.865103 0.974366 -4.361047 15.955546 0.237001 -1.803359 14.972294 0.004461 0.249922 -2.051194 0.000002 0.000000 -0.000001 -8.076692 -0.486723 -3.806301 2.494885 -10.313599 14.377067 0.061679 -0.926149 7.622622 0.000804 -0.105180 0.863094 0.000001 -0.000000 -0.000001 4.570402 11.014678 -2.160815 0.592270 -2.755662 -10.292481 -33.996259 -24.964422 -70.983636 0.000009 -33.231227 0.000000 41.856820 -9.488792 49.054227 2.466104 -1.576207 2.681696 2.469790 3.080899 2.354601 5.804005 8.429678 -3.269105 2.647881 -1.528732 1.528751 1.339549 18.462985 -3.357703 1.998929 -1.154078 1.154082 -0.000002 -0.000000 -0.000002 9.109289 -0.518003 2.259898 -1.620435 -4.338975 -17.243087 1.140759 3.800984 -33.402292 0.003010 -0.203669 1.687846 -0.000001 0.000000 -0.000002 9.533404 0.000005 -0.000002 -0.391334 -1.730333 -9.770724 1.067819 3.688222 -32.285290 0.066351 -0.955423 7.943111 -0.000001 -0.000000 -0.000001 9.104499 -0.042998 -1.865101 0.279868 2.045963 -11.909110 0.312113 2.053471 -17.284072 0.066355 -0.955439 7.943116 -0.000002 0.000000 -0.000001 8.077810 -0.486898 -3.806299 1.819735 11.116895 -9.234959 0.238417 -2.249609 -15.645969 0.003580 0.222458 -1.843572 -0.000001 -0.000000 0.000000 -8.207801 -6.751703 -1.599542 -50.958289 -2.721471 -8.157254 54.161631 3.562852 0.299069 6.742129 -0.036421 4.390875 0.113151 -0.000005 0.000002 0.000000 -0.000001 0.000000 8.207800 -6.751697 -1.599560 -52.620583 1.541899 8.358140 54.197872 -2.386104 4.178878 9.418734 -0.004834 -3.923536 -3.373867 -0.000001 0.000001 0.000000 -0.000000 0.000000 
-0.175401 79.251389 0.803989 -12.008244 -1.875958 -3.348465 0.000000 10.181560 0.131526 19.366523 0.107192 1.520310 6.936554 -0.097119 0.589473 6.936382 -0.098720 0.591423 0.000001 16.740364 -2.049022 0.261333 -0.065599 3.095880 -0.000005 9.617810 1.684980 -1.211308 5.881060 -9.189161 0.000002 22.037354 7.501075 -0.000001 -0.000000 0.000000 -4.570001 11.014881 -2.160840 0.150342 9.608245 9.555815 -26.825667 23.328233 69.971723 -0.000020 46.101479 0.000032 39.562621 -0.189307 -39.295636 -2.464796 -1.574004 2.681909 4.365082 3.545711 3.587914 18.858992 -16.132383 5.536869 -2.646264 -1.527813 1.527817 -5.056974 -2.363342 -3.812189 -1.994587 -1.151595 1.151575 -0.000001 -0.000001 0.000001 -9.108308 -0.517877 2.259797 0.620433 -2.988725 31.879413 0.268673 -1.917771 15.947583 0.004847 -0.260225 2.135725 0.000001 -0.000001 0.000003 -9.532498 0.000000 -0.000006 0.965958 -4.223761 16.700629 0.818877 -3.278722 28.039165 0.025705 0.598354 -4.916088 0.000003 -0.000001 0.000003 -9.103603 -0.043095 -1.865107 0.974410 -4.361095 15.956042 0.237012 -1.803414 14.972777 0.004478 0.249874 -2.050733 -0.000001 0.000000 -0.000002 -8.076697 -0.486724 -3.806307 2.494993 -10.313648 14.377712 0.061710 -0.926236 7.623242 0.000789 -0.105240 0.863745 0.000001 -0.000001 0.000001 4.570399 11.014688 -2.160817 0.592290 -2.754038 -10.297447 -33.999865 -25.003178 -70.983984 -0.000012 -33.265350 -0.000034 41.833020 -9.446125 48.974277 2.466101 -1.576206 2.681701 2.469789 3.080897 2.354599 5.804004 8.429683 -3.269101 2.647887 -1.528749 1.528752 1.339547 18.462985 -3.357708 1.998925 -1.154089 1.154084 -0.000000 0.000003 0.000003 9.109297 -0.517988 2.259905 -1.620432 -4.338975 -17.243082 1.140759 3.800984 -33.402299 0.003014 -0.203669 1.687845 0.000002 -0.000001 0.000002 9.533406 0.000004 0.000003 -0.391337 -1.730333 -9.770724 1.067820 3.688221 -32.285287 0.066348 -0.955422 7.943105 0.000001 0.000000 0.000001 9.104501 -0.042998 -1.865098 0.279869 2.045962 -11.909108 0.312114 2.053469 -17.284069 0.066356 -0.955439 7.943116 0.000000 -0.000000 -0.000000 8.077805 -0.486882 -3.806300 1.819734 11.116894 -9.234958 0.238416 -2.249608 -15.645969 0.003575 0.222458 -1.843573 0.000002 -0.000001 -0.000001 -8.207801 -6.751702 -1.599537 -50.944219 -2.733136 -8.146111 54.156406 3.560301 0.304251 6.749890 -0.035316 4.393133 0.139059 0.000002 0.000002 -0.000000 0.000000 -0.000000 8.207799 -6.751694 -1.599538 -52.621266 1.530643 8.370881 54.214172 -2.389589 4.183398 9.413394 -0.004566 -3.921031 -3.374742 0.000000 -0.000002 0.000000 0.000000 0.000000 
-0.169443 79.248199 0.803652 -12.018888 -1.872345 -3.368651 0.000000 10.181543 0.131528 19.363491 0.106206 1.512800 6.935523 -0.097615 0.585165 6.935372 -0.099440 0.587131 0.000000 16.740370 -2.049019 0.276471 -0.057164 3.073956 -0.000002 9.617849 1.684981 -1.166588 5.901351 -9.212258 0.000001 22.037354 7.501071 0.000001 0.000000 -0.000000 -4.570002 11.014876 -2.160839 0.150074 9.606684 9.557582 -26.815808 23.421666 69.933187 -0.000002 46.008888 0.000032 39.525994 -0.145532 -39.376095 -2.464790 -1.573996 2.681903 4.365071 3.545684 3.587906 18.858999 -16.132376 5.536872 -2.646274 -1.527821 1.527818 -5.056963 -2.363345 -3.812173 -1.994604 -1.151598 1.151577 0.000001 -0.000002 -0.000001 -9.108302 -0.517875 2.259795 0.620463 -2.988789 31.880226 0.268693 -1.917862 15.948410 0.004861 -0.260330 2.136527 0.000001 -0.000001 -0.000001 -9.532505 -0.000002 -0.000007 0.966015 -4.223826 16.701436 0.818911 -3.278812 28.039994 0.025689 0.598243 -4.915266 0.000002 -0.000003 0.000001 -9.103590 -0.043111 -1.865107 0.974504 -4.361207 15.957347 0.237043 -1.803564 14.974095 0.004470 0.249692 -2.049421 0.000001 -0.000002 0.000002 -8.076695 -0.486740 -3.806305 2.495298 -10.313764 14.379449 0.061743 -0.926414 7.624981 0.000804 -0.105466 0.865468 -0.000001 0.000002 0.000002 4.570401 11.014677 -2.160815 0.592348 -2.753864 -10.306790 -34.006569 -25.016867 -70.991682 -0.000009 -33.271118 -0.000006 41.842296 -9.421060 48.920926 2.466092 -1.576212 2.681700 2.469787 3.080900 2.354602 5.804000 8.429684 -3.269106 2.647890 -1.528738 1.528746 1.339550 18.462985 -3.357706 1.998924 -1.154095 1.154071 -0.000001 -0.000002 -0.000000 9.109297 -0.518003 2.259902 -1.620435 -4.338976 -17.243082 1.140759 3.800984 -33.402296 0.003012 -0.203670 1.687848 -0.000001 0.000000 -0.000002 9.533389 0.000004 0.000004 -0.391338 -1.730333 -9.770724 1.067821 3.688221 -32.285290 0.066347 -0.955423 7.943108 -0.000001 0.000001 0.000001 9.104505 -0.042999 -1.865096 0.279864 2.045962 -11.909108 0.312112 2.053471 -17.284067 0.066355 -0.955439 7.943113 -0.000001 -0.000000 0.000001 8.077803 -0.486898 -3.806300 1.819731 11.116893 -9.234958 0.238417 -2.249611 -15.645971 0.003573 0.222457 -1.843574 0.000003 -0.000001 0.000002 -8.207799 -6.751702 -1.599546 -50.930238 -2.741244 -8.137847 54.152786 3.564130 0.308691 6.757218 -0.033980 4.398860 0.161220 0.000004 0.000001 0.000000 -0.000001 -0.000000 8.207799 -6.751696 -1.599538 -52.621331 1.519634 8.379473 54.229619 -2.392614 4.188246 9.408913 -0.004476 -3.920529 -3.376154 -0.000006 -0.000002 0.000000 0.000000 0.000000 
-0.163865 79.244629 0.803726 -12.028725 -1.867746 -3.387428 -0.000000 10.181546 0.131526 19.351241 0.109480 1.507024 6.931038 -0.096155 0.582565 6.930883 -0.097996 0.584517 -0.000000 16.740376 -2.049025 0.276169 -0.051348 3.063278 -0.000001 9.617881 1.684973 -1.129138 5.917916 -9.224025 -0.000000 22.037354 7.501074 0.000000 0.000000 -0.000000 -4.569998 11.014869 -2.160842 0.150283 9.606258 9.556117 -26.813820 23.412601 69.930284 -0.000008 45.958697 0.000033 39.548318 -0.136933 -39.307752 -2.464795 -1.573980 2.681906 4.365067 3.545703 3.587917 18.858989 -16.132343 5.536865 -2.646271 -1.527811 1.527815 -5.056966 -2.363346 -3.812186 -1.994597 -1.151585 1.151577 0.000002 -0.000001 -0.000000 -9.108290 -0.517860 2.259802 0.620455 -2.988755 31.879915 0.268674 -1.917839 15.948118 0.004861 -0.260263 2.136240 0.000003 -0.000003 0.000004 -9.532509 0.000017 -0.000005 0.966003 -4.223799 16.701141 0.818886 -3.278771 28.039697 0.025684 0.598295 -4.915568 -0.000000 -0.000001 0.000001 -9.103587 -0.043082 -1.865108 0.974457 -4.361148 15.956864 0.237033 -1.803513 14.973617 0.004473 0.249762 -2.049892 0.000002 -0.000001 -0.000001 -8.076697 -0.486720 -3.806303 2.495179 -10.313710 14.378825 0.061732 -0.926333 7.624334 0.000799 -0.105407 0.864825 0.000003 0.000001 0.000001 4.570400 11.014677 -2.160818 0.592423 -2.755795 -10.318512 -34.009411 -25.014492 -70.999495 0.000022 -33.261556 0.000033 41.874585 -9.407490 48.892458 2.466101 -1.576208 2.681697 2.469787 3.080897 2.354599 5.804001 8.429678 -3.269104 2.647886 -1.528748 1.528749 1.339556 18.462987 -3.357708 1.998917 -1.154102 1.154076 0.000004 0.000002 -0.000000 9.109289 -0.518003 2.259898 -1.620431 -4.338976 -17.243084 1.140758 3.800984 -33.402299 0.003015 -0.203670 1.687846 -0.000001 0.000000 -0.000002 9.533399 0.000019 0.000001 -0.391336 -1.730333 -9.770724 1.067821 3.688222 -32.285290 0.066349 -0.955424 7.943113 -0.000003 0.000000 -0.000000 9.104495 -0.042998 -1.865105 0.279868 2.045962 -11.909108 0.312112 2.053470 -17.284067 0.066356 -0.955438 7.943114 -0.000000 0.000000 -0.000001 8.077796 -0.486883 -3.806298 1.819732 11.116894 -9.234957 0.238418 -2.249609 -15.645966 0.003575 0.222458 -1.843575 -0.000001 0.000001 -0.000002 -8.207803 -6.751704 -1.599545 -50.917725 -2.747006 -8.130936 54.151239 3.571566 0.313330 6.763874 -0.032595 4.406339 0.178180 -0.000004 -0.000003 -0.000000 -0.000001 -0.000000 8.207800 -6.751706 -1.599548 -52.622219 1.508691 8.386510 54.245216 -2.395361 4.193172 9.405521 -0.004585 -3.921380 -3.377896 -0.000002 0.000002 0.000000 -0.000001 0.000000 
